<svg width="17" height="16" viewBox="0 0 17 16" fill="none" xmlns="http://www.w3.org/2000/svg">
<g clip-path="url(#clip0_7646_1194)">
<path d="M8.02919 2.74805L7.31219 2.01105C5.62919 0.281049 2.54319 0.878049 1.42919 3.05305C0.906192 4.07605 0.788192 5.55305 1.74319 7.43805C2.66319 9.25305 4.57719 11.427 8.02919 13.795C11.4812 11.427 13.3942 9.25305 14.3152 7.43805C15.2702 5.55205 15.1532 4.07605 14.6292 3.05305C13.5152 0.878049 10.4292 0.280049 8.74619 2.01005L8.02919 2.74805ZM8.02919 15C-7.30381 4.86805 3.30819 -3.03995 7.85319 1.14305C7.91319 1.19805 7.97219 1.25505 8.02919 1.31405C8.08561 1.2551 8.14432 1.19839 8.20519 1.14405C12.7492 -3.04195 23.3622 4.86705 8.02919 15Z" fill="#111111"/>
</g>
<defs>
<clipPath id="clip0_7646_1194">
<rect width="16" height="16" fill="white" transform="translate(0.0292969)"/>
</clipPath>
</defs>
</svg>
